<svg width="568" height="567" viewBox="0 0 568 567" fill="none" xmlns="http://www.w3.org/2000/svg">
<path d="M17.6818 0H0.5V17.1818H17.6818V0Z" fill="black"/>
<path d="M34.8636 0H17.6818V17.1818H34.8636V0Z" fill="black"/>
<path d="M52.0455 0H34.8636V17.1818H52.0455V0Z" fill="black"/>
<path d="M69.2273 0H52.0455V17.1818H69.2273V0Z" fill="black"/>
<path d="M86.4091 0H69.2273V17.1818H86.4091V0Z" fill="black"/>
<path d="M103.591 0H86.4091V17.1818H103.591V0Z" fill="black"/>
<path d="M120.773 0H103.591V17.1818H120.773V0Z" fill="black"/>
<path d="M155.136 0H137.955V17.1818H155.136V0Z" fill="black"/>
<path d="M172.318 0H155.136V17.1818H172.318V0Z" fill="black"/>
<path d="M189.5 0H172.318V17.1818H189.5V0Z" fill="black"/>
<path d="M206.682 0H189.5V17.1818H206.682V0Z" fill="black"/>
<path d="M258.227 0H241.045V17.1818H258.227V0Z" fill="black"/>
<path d="M292.591 0H275.409V17.1818H292.591V0Z" fill="black"/>
<path d="M309.773 0H292.591V17.1818H309.773V0Z" fill="black"/>
<path d="M326.955 0H309.773V17.1818H326.955V0Z" fill="black"/>
<path d="M344.136 0H326.955V17.1818H344.136V0Z" fill="black"/>
<path d="M361.318 0H344.136V17.1818H361.318V0Z" fill="black"/>
<path d="M395.682 0H378.5V17.1818H395.682V0Z" fill="black"/>
<path d="M430.045 0H412.864V17.1818H430.045V0Z" fill="black"/>
<path d="M464.409 0H447.227V17.1818H464.409V0Z" fill="black"/>
<path d="M481.591 0H464.409V17.1818H481.591V0Z" fill="black"/>
<path d="M498.773 0H481.591V17.1818H498.773V0Z" fill="black"/>
<path d="M515.955 0H498.773V17.1818H515.955V0Z" fill="black"/>
<path d="M533.136 0H515.955V17.1818H533.136V0Z" fill="black"/>
<path d="M550.318 0H533.136V17.1818H550.318V0Z" fill="black"/>
<path d="M567.5 0H550.318V17.1818H567.5V0Z" fill="black"/>
<path d="M17.6818 17.1818H0.5V34.3636H17.6818V17.1818Z" fill="black"/>
<path d="M120.773 17.1818H103.591V34.3636H120.773V17.1818Z" fill="black"/>
<path d="M172.318 17.1818H155.136V34.3636H172.318V17.1818Z" fill="black"/>
<path d="M189.5 17.1818H172.318V34.3636H189.5V17.1818Z" fill="black"/>
<path d="M206.682 17.1818H189.5V34.3636H206.682V17.1818Z" fill="black"/>
<path d="M223.864 17.1818H206.682V34.3636H223.864V17.1818Z" fill="black"/>
<path d="M258.227 17.1818H241.045V34.3636H258.227V17.1818Z" fill="black"/>
<path d="M275.409 17.1818H258.227V34.3636H275.409V17.1818Z" fill="black"/>
<path d="M344.136 17.1818H326.955L326.955 34.3636H344.136V17.1818Z" fill="black"/>
<path d="M378.5 17.1818H361.318V34.3636H378.5V17.1818Z" fill="black"/>
<path d="M395.682 17.1818H378.5V34.3636H395.682V17.1818Z" fill="black"/>
<path d="M412.864 17.1818H395.682V34.3636H412.864V17.1818Z" fill="black"/>
<path d="M464.409 17.1818H447.227V34.3636H464.409V17.1818Z" fill="black"/>
<path d="M567.5 17.1818H550.318V34.3636H567.5V17.1818Z" fill="black"/>
<path d="M17.6818 34.3636H0.5V51.5455H17.6818V34.3636Z" fill="black"/>
<path d="M52.0455 34.3636H34.8636V51.5455H52.0455V34.3636Z" fill="black"/>
<path d="M69.2273 34.3636H52.0455V51.5455H69.2273V34.3636Z" fill="black"/>
<path d="M86.4091 34.3636H69.2273V51.5455H86.4091V34.3636Z" fill="black"/>
<path d="M120.773 34.3636H103.591V51.5455H120.773V34.3636Z" fill="black"/>
<path d="M189.5 34.3636H172.318V51.5455H189.5V34.3636Z" fill="black"/>
<path d="M206.682 34.3636H189.5V51.5455H206.682V34.3636Z" fill="black"/>
<path d="M223.864 34.3636H206.682V51.5455H223.864V34.3636Z" fill="black"/>
<path d="M241.045 34.3636H223.864V51.5455H241.045V34.3636Z" fill="black"/>
<path d="M326.955 34.3636H309.773V51.5455H326.955L326.955 34.3636Z" fill="black"/>
<path d="M361.318 34.3636H344.136V51.5455H361.318V34.3636Z" fill="black"/>
<path d="M378.5 34.3636H361.318V51.5455H378.5V34.3636Z" fill="black"/>
<path d="M412.864 34.3636H395.682V51.5455H412.864V34.3636Z" fill="black"/>
<path d="M430.045 34.3636H412.864V51.5455H430.045V34.3636Z" fill="black"/>
<path d="M464.409 34.3636H447.227V51.5455H464.409V34.3636Z" fill="black"/>
<path d="M498.773 34.3636H481.591V51.5455H498.773V34.3636Z" fill="black"/>
<path d="M515.955 34.3636H498.773V51.5455H515.955V34.3636Z" fill="black"/>
<path d="M533.136 34.3636H515.955V51.5455H533.136V34.3636Z" fill="black"/>
<path d="M567.5 34.3636H550.318V51.5455H567.5V34.3636Z" fill="black"/>
<path d="M17.6818 51.5455H0.5V68.7273H17.6818V51.5455Z" fill="black"/>
<path d="M52.0455 51.5455H34.8636V68.7273H52.0455V51.5455Z" fill="black"/>
<path d="M69.2273 51.5455H52.0455V68.7273H69.2273V51.5455Z" fill="black"/>
<path d="M86.4091 51.5455H69.2273V68.7273H86.4091V51.5455Z" fill="black"/>
<path d="M120.773 51.5455H103.591V68.7273H120.773V51.5455Z" fill="black"/>
<path d="M155.136 51.5455H137.955V68.7273H155.136V51.5455Z" fill="black"/>
<path d="M223.864 51.5455H206.682V68.7273H223.864V51.5455Z" fill="black"/>
<path d="M241.045 51.5455H223.864V68.7273H241.045V51.5455Z" fill="black"/>
<path d="M309.773 51.5455H292.591V68.7273H309.773V51.5455Z" fill="black"/>
<path d="M361.318 51.5455H344.136V68.7273H361.318V51.5455Z" fill="black"/>
<path d="M378.5 51.5455H361.318V68.7273H378.5V51.5455Z" fill="black"/>
<path d="M430.045 51.5455H412.864V68.7273H430.045V51.5455Z" fill="black"/>
<path d="M464.409 51.5455H447.227V68.7273H464.409V51.5455Z" fill="black"/>
<path d="M498.773 51.5455H481.591V68.7273H498.773V51.5455Z" fill="black"/>
<path d="M515.955 51.5455H498.773V68.7273H515.955V51.5455Z" fill="black"/>
<path d="M533.136 51.5455H515.955V68.7273H533.136V51.5455Z" fill="black"/>
<path d="M567.5 51.5455H550.318V68.7273H567.5V51.5455Z" fill="black"/>
<path d="M17.6818 68.7273H0.5V85.9091H17.6818V68.7273Z" fill="black"/>
<path d="M52.0455 68.7273H34.8636V85.9091H52.0455V68.7273Z" fill="black"/>
<path d="M69.2273 68.7273H52.0455V85.9091H69.2273V68.7273Z" fill="black"/>
<path d="M86.4091 68.7273H69.2273V85.9091H86.4091V68.7273Z" fill="black"/>
<path d="M120.773 68.7273H103.591V85.9091H120.773V68.7273Z" fill="black"/>
<path d="M206.682 68.7273H189.5V85.9091H206.682V68.7273Z" fill="black"/>
<path d="M275.409 68.7273H258.227V85.9091H275.409V68.7273Z" fill="black"/>
<path d="M292.591 68.7273H275.409V85.9091H292.591V68.7273Z" fill="black"/>
<path d="M326.955 68.7273H309.773V85.9091H326.955V68.7273Z" fill="black"/>
<path d="M344.136 68.7273H326.955V85.9091H344.136V68.7273Z" fill="black"/>
<path d="M378.5 68.7273H361.318V85.9091H378.5V68.7273Z" fill="black"/>
<path d="M395.682 68.7273H378.5V85.9091H395.682V68.7273Z" fill="black"/>
<path d="M412.864 68.7273H395.682V85.9091H412.864V68.7273Z" fill="black"/>
<path d="M430.045 68.7273H412.864V85.9091H430.045V68.7273Z" fill="black"/>
<path d="M464.409 68.7273H447.227V85.9091H464.409V68.7273Z" fill="black"/>
<path d="M498.773 68.7273H481.591V85.9091H498.773V68.7273Z" fill="black"/>
<path d="M515.955 68.7273H498.773V85.9091H515.955V68.7273Z" fill="black"/>
<path d="M533.136 68.7273H515.955V85.9091H533.136V68.7273Z" fill="black"/>
<path d="M567.5 68.7273H550.318V85.9091H567.5V68.7273Z" fill="black"/>
<path d="M17.6818 85.9091H0.5V103.091H17.6818V85.9091Z" fill="black"/>
<path d="M120.773 85.9091H103.591V103.091H120.773V85.9091Z" fill="black"/>
<path d="M155.136 85.9091H137.955V103.091H155.136V85.9091Z" fill="black"/>
<path d="M206.682 85.9091H189.5V103.091H206.682V85.9091Z" fill="black"/>
<path d="M275.409 85.9091H258.227V103.091H275.409V85.9091Z" fill="black"/>
<path d="M292.591 85.9091H275.409V103.091H292.591V85.9091Z" fill="black"/>
<path d="M326.955 85.9091H309.773V103.091H326.955V85.9091Z" fill="black"/>
<path d="M361.318 85.9091H344.136V103.091H361.318V85.9091Z" fill="black"/>
<path d="M395.682 85.9091H378.5V103.091H395.682V85.9091Z" fill="black"/>
<path d="M412.864 85.9091H395.682V103.091H412.864V85.9091Z" fill="black"/>
<path d="M464.409 85.9091H447.227V103.091H464.409V85.9091Z" fill="black"/>
<path d="M567.5 85.9091H550.318V103.091H567.5V85.9091Z" fill="black"/>
<path d="M17.6818 103.091H0.5V120.273H17.6818V103.091Z" fill="black"/>
<path d="M34.8636 103.091H17.6818V120.273H34.8636V103.091Z" fill="black"/>
<path d="M52.0455 103.091H34.8636V120.273H52.0455V103.091Z" fill="black"/>
<path d="M69.2273 103.091H52.0455V120.273H69.2273V103.091Z" fill="black"/>
<path d="M86.4091 103.091H69.2273V120.273H86.4091V103.091Z" fill="black"/>
<path d="M103.591 103.091H86.4091V120.273H103.591V103.091Z" fill="black"/>
<path d="M120.773 103.091H103.591V120.273H120.773V103.091Z" fill="black"/>
<path d="M155.136 103.091H137.955V120.273H155.136V103.091Z" fill="black"/>
<path d="M189.5 103.091H172.318V120.273H189.5V103.091Z" fill="black"/>
<path d="M223.864 103.091H206.682V120.273H223.864V103.091Z" fill="black"/>
<path d="M258.227 103.091H241.045V120.273H258.227V103.091Z" fill="black"/>
<path d="M292.591 103.091H275.409V120.273H292.591V103.091Z" fill="black"/>
<path d="M326.955 103.091H309.773V120.273H326.955V103.091Z" fill="black"/>
<path d="M361.318 103.091H344.136V120.273H361.318V103.091Z" fill="black"/>
<path d="M395.682 103.091H378.5V120.273H395.682V103.091Z" fill="black"/>
<path d="M430.045 103.091H412.864V120.273H430.045V103.091Z" fill="black"/>
<path d="M464.409 103.091H447.227V120.273H464.409V103.091Z" fill="black"/>
<path d="M481.591 103.091H464.409V120.273H481.591V103.091Z" fill="black"/>
<path d="M498.773 103.091H481.591V120.273H498.773V103.091Z" fill="black"/>
<path d="M515.955 103.091H498.773V120.273H515.955V103.091Z" fill="black"/>
<path d="M533.136 103.091H515.955V120.273H533.136V103.091Z" fill="black"/>
<path d="M550.318 103.091H533.136V120.273H550.318V103.091Z" fill="black"/>
<path d="M567.5 103.091H550.318V120.273H567.5V103.091Z" fill="black"/>
<path d="M172.318 120.273H155.136V137.455H172.318V120.273Z" fill="black"/>
<path d="M223.864 120.273H206.682V137.455H223.864V120.273Z" fill="black"/>
<path d="M241.045 120.273H223.864V137.455H241.045V120.273Z" fill="black"/>
<path d="M326.955 120.273H309.773V137.455H326.955V120.273Z" fill="black"/>
<path d="M361.318 120.273H344.136V137.455H361.318V120.273Z" fill="black"/>
<path d="M412.864 120.273H395.682V137.455H412.864V120.273Z" fill="black"/>
<path d="M103.591 137.455H86.4091V154.636H103.591V137.455Z" fill="black"/>
<path d="M120.773 137.455H103.591V154.636H120.773V137.455Z" fill="black"/>
<path d="M155.136 137.455H137.955V154.636H155.136V137.455Z" fill="black"/>
<path d="M172.318 137.455H155.136V154.636H172.318V137.455Z" fill="black"/>
<path d="M189.5 137.455H172.318V154.636H189.5V137.455Z" fill="black"/>
<path d="M258.227 137.455H241.045V154.636H258.227V137.455Z" fill="black"/>
<path d="M292.591 137.455H275.409V154.636H292.591V137.455Z" fill="black"/>
<path d="M309.773 137.455H292.591V154.636H309.773V137.455Z" fill="black"/>
<path d="M344.136 137.455H326.955L326.955 154.636H344.136V137.455Z" fill="black"/>
<path d="M361.318 137.455H344.136V154.636H361.318V137.455Z" fill="black"/>
<path d="M447.227 137.455H430.045V154.636H447.227V137.455Z" fill="black"/>
<path d="M481.591 137.455H464.409V154.636H481.591V137.455Z" fill="black"/>
<path d="M515.955 137.455H498.773V154.636H515.955V137.455Z" fill="black"/>
<path d="M567.5 137.455H550.318V154.636H567.5V137.455Z" fill="black"/>
<path d="M34.8636 154.636H17.6818V171.818H34.8636V154.636Z" fill="black"/>
<path d="M86.4091 154.636H69.2273V171.818H86.4091V154.636Z" fill="black"/>
<path d="M172.318 154.636H155.136V171.818H172.318V154.636Z" fill="black"/>
<path d="M189.5 154.636H172.318V171.818H189.5V154.636Z" fill="black"/>
<path d="M206.682 154.636H189.5V171.818H206.682V154.636Z" fill="black"/>
<path d="M258.227 154.636H241.045V171.818H258.227V154.636Z" fill="black"/>
<path d="M309.773 154.636H292.591V171.818H309.773V154.636Z" fill="black"/>
<path d="M326.955 154.636H309.773V171.818H326.955L326.955 154.636Z" fill="black"/>
<path d="M361.318 154.636H344.136V171.818H361.318V154.636Z" fill="black"/>
<path d="M395.682 154.636H378.5V171.818H395.682V154.636Z" fill="black"/>
<path d="M430.045 154.636H412.864V171.818H430.045V154.636Z" fill="black"/>
<path d="M447.227 154.636H430.045V171.818H447.227V154.636Z" fill="black"/>
<path d="M498.773 154.636H481.591V171.818H498.773V154.636Z" fill="black"/>
<path d="M567.5 154.636H550.318V171.818H567.5V154.636Z" fill="black"/>
<path d="M52.0455 171.818H34.8636V189H52.0455V171.818Z" fill="black"/>
<path d="M86.4091 171.818H69.2273V189H86.4091V171.818Z" fill="black"/>
<path d="M120.773 171.818H103.591V189H120.773V171.818Z" fill="black"/>
<path d="M137.955 171.818H120.773V189H137.955V171.818Z" fill="black"/>
<path d="M155.136 171.818H137.955V189H155.136V171.818Z" fill="black"/>
<path d="M172.318 171.818H155.136V189H172.318V171.818Z" fill="black"/>
<path d="M189.5 171.818H172.318V189H189.5V171.818Z" fill="black"/>
<path d="M206.682 171.818H189.5V189H206.682V171.818Z" fill="black"/>
<path d="M223.864 171.818H206.682V189H223.864V171.818Z" fill="black"/>
<path d="M292.591 171.818H275.409V189H292.591V171.818Z" fill="black"/>
<path d="M309.773 171.818H292.591V189H309.773V171.818Z" fill="black"/>
<path d="M326.955 171.818H309.773V189H326.955V171.818Z" fill="black"/>
<path d="M464.409 171.818H447.227V189H464.409V171.818Z" fill="black"/>
<path d="M481.591 171.818H464.409V189H481.591V171.818Z" fill="black"/>
<path d="M498.773 171.818H481.591V189H498.773V171.818Z" fill="black"/>
<path d="M515.955 171.818H498.773V189H515.955V171.818Z" fill="black"/>
<path d="M550.318 171.818H533.136V189H550.318V171.818Z" fill="black"/>
<path d="M567.5 171.818H550.318V189H567.5V171.818Z" fill="black"/>
<path d="M34.8636 189H17.6818V206.182H34.8636V189Z" fill="black"/>
<path d="M69.2273 189H52.0455V206.182H69.2273V189Z" fill="black"/>
<path d="M137.955 189H120.773V206.182H137.955V189Z" fill="black"/>
<path d="M189.5 189H172.318V206.182H189.5V189Z" fill="black"/>
<path d="M241.045 189H223.864V206.182H241.045V189Z" fill="black"/>
<path d="M258.227 189H241.045V206.182H258.227V189Z" fill="black"/>
<path d="M275.409 189H258.227V206.182H275.409V189Z" fill="black"/>
<path d="M361.318 189H344.136V206.182H361.318V189Z" fill="black"/>
<path d="M430.045 189H412.864V206.182H430.045V189Z" fill="black"/>
<path d="M447.227 189H430.045V206.182H447.227V189Z" fill="black"/>
<path d="M481.591 189H464.409V206.182H481.591V189Z" fill="black"/>
<path d="M550.318 189H533.136V206.182H550.318V189Z" fill="black"/>
<path d="M34.8636 206.182H17.6818V223.364H34.8636V206.182Z" fill="black"/>
<path d="M86.4091 206.182H69.2273V223.364H86.4091V206.182Z" fill="black"/>
<path d="M120.773 206.182H103.591V223.364H120.773V206.182Z" fill="black"/>
<path d="M137.955 206.182H120.773V223.364H137.955V206.182Z" fill="black"/>
<path d="M155.136 206.182H137.955V223.364H155.136V206.182Z" fill="black"/>
<path d="M189.5 206.182H172.318V223.364H189.5V206.182Z" fill="black"/>
<path d="M206.682 206.182H189.5V223.364H206.682V206.182Z" fill="black"/>
<path d="M223.864 206.182H206.682V223.364H223.864V206.182Z" fill="black"/>
<path d="M241.045 206.182H223.864V223.364H241.045V206.182Z" fill="black"/>
<path d="M309.773 206.182H292.591V223.364H309.773V206.182Z" fill="black"/>
<path d="M326.955 206.182H309.773V223.364H326.955V206.182Z" fill="black"/>
<path d="M378.5 206.182H361.318V223.364H378.5V206.182Z" fill="black"/>
<path d="M412.864 206.182H395.682V223.364H412.864V206.182Z" fill="black"/>
<path d="M447.227 206.182H430.045V223.364H447.227V206.182Z" fill="black"/>
<path d="M481.591 206.182H464.409V223.364H481.591V206.182Z" fill="black"/>
<path d="M550.318 206.182H533.136V223.364H550.318V206.182Z" fill="black"/>
<path d="M567.5 206.182H550.318V223.364H567.5V206.182Z" fill="black"/>
<path d="M69.2273 223.364H52.0455V240.545H69.2273V223.364Z" fill="black"/>
<path d="M86.4091 223.364H69.2273V240.545H86.4091V223.364Z" fill="black"/>
<path d="M103.591 223.364H86.4091V240.545H103.591V223.364Z" fill="black"/>
<path d="M155.136 223.364H137.955V240.545H155.136V223.364Z" fill="black"/>
<path d="M275.409 223.364H258.227V240.545H275.409V223.364Z" fill="black"/>
<path d="M309.773 223.364H292.591V240.545H309.773V223.364Z" fill="black"/>
<path d="M326.955 223.364H309.773V240.545H326.955V223.364Z" fill="black"/>
<path d="M344.136 223.364H326.955V240.545H344.136V223.364Z" fill="black"/>
<path d="M361.318 223.364H344.136V240.545H361.318V223.364Z" fill="black"/>
<path d="M395.682 223.364H378.5V240.545H395.682V223.364Z" fill="black"/>
<path d="M412.864 223.364H395.682V240.545H412.864V223.364Z" fill="black"/>
<path d="M430.045 223.364H412.864V240.545H430.045V223.364Z" fill="black"/>
<path d="M498.773 223.364H481.591V240.545H498.773V223.364Z" fill="black"/>
<path d="M52.0455 240.545H34.8636V257.727H52.0455V240.545Z" fill="black"/>
<path d="M103.591 240.545H86.4091V257.727H103.591V240.545Z" fill="black"/>
<path d="M120.773 240.545H103.591V257.727H120.773V240.545Z" fill="black"/>
<path d="M137.955 240.545H120.773V257.727H137.955V240.545Z" fill="black"/>
<path d="M155.136 240.545H137.955V257.727H155.136V240.545Z" fill="black"/>
<path d="M206.682 240.545H189.5V257.727H206.682V240.545Z" fill="black"/>
<path d="M275.409 240.545H258.227V257.727H275.409V240.545Z" fill="black"/>
<path d="M292.591 240.545H275.409V257.727H292.591V240.545Z" fill="black"/>
<path d="M309.773 240.545H292.591V257.727H309.773V240.545Z" fill="black"/>
<path d="M395.682 240.545H378.5V257.727H395.682V240.545Z" fill="black"/>
<path d="M412.864 240.545H395.682V257.727H412.864V240.545Z" fill="black"/>
<path d="M430.045 240.545H412.864V257.727H430.045V240.545Z" fill="black"/>
<path d="M464.409 240.545H447.227V257.727H464.409V240.545Z" fill="black"/>
<path d="M498.773 240.545H481.591V257.727H498.773V240.545Z" fill="black"/>
<path d="M515.955 240.545H498.773V257.727H515.955V240.545Z" fill="black"/>
<path d="M17.6818 257.727H0.5V274.909H17.6818V257.727Z" fill="black"/>
<path d="M34.8636 257.727H17.6818V274.909H34.8636V257.727Z" fill="black"/>
<path d="M52.0455 257.727H34.8636V274.909H52.0455V257.727Z" fill="black"/>
<path d="M69.2273 257.727H52.0455V274.909H69.2273V257.727Z" fill="black"/>
<path d="M155.136 257.727H137.955V274.909H155.136V257.727Z" fill="black"/>
<path d="M241.045 257.727H223.864V274.909H241.045V257.727Z" fill="black"/>
<path d="M275.409 257.727H258.227V274.909H275.409V257.727Z" fill="black"/>
<path d="M344.136 257.727H326.955V274.909H344.136V257.727Z" fill="black"/>
<path d="M378.5 257.727H361.318V274.909H378.5V257.727Z" fill="black"/>
<path d="M395.682 257.727H378.5V274.909H395.682V257.727Z" fill="black"/>
<path d="M430.045 257.727H412.864V274.909H430.045V257.727Z" fill="black"/>
<path d="M498.773 257.727H481.591V274.909H498.773V257.727Z" fill="black"/>
<path d="M515.955 257.727H498.773V274.909H515.955V257.727Z" fill="black"/>
<path d="M550.318 257.727H533.136V274.909H550.318V257.727Z" fill="black"/>
<path d="M17.6818 274.909H0.5V292.091H17.6818V274.909Z" fill="black"/>
<path d="M34.8636 274.909H17.6818V292.091H34.8636V274.909Z" fill="black"/>
<path d="M52.0455 274.909H34.8636V292.091H52.0455V274.909Z" fill="black"/>
<path d="M86.4091 274.909H69.2273V292.091H86.4091V274.909Z" fill="black"/>
<path d="M120.773 274.909H103.591V292.091H120.773V274.909Z" fill="black"/>
<path d="M206.682 274.909H189.5V292.091H206.682V274.909Z" fill="black"/>
<path d="M241.045 274.909H223.864V292.091H241.045V274.909Z" fill="black"/>
<path d="M292.591 274.909H275.409V292.091H292.591V274.909Z" fill="black"/>
<path d="M309.773 274.909H292.591V292.091H309.773V274.909Z" fill="black"/>
<path d="M326.955 274.909H309.773V292.091H326.955L326.955 274.909Z" fill="black"/>
<path d="M361.318 274.909H344.136V292.091H361.318V274.909Z" fill="black"/>
<path d="M378.5 274.909H361.318V292.091H378.5V274.909Z" fill="black"/>
<path d="M412.864 274.909H395.682V292.091H412.864V274.909Z" fill="black"/>
<path d="M430.045 274.909H412.864V292.091H430.045V274.909Z" fill="black"/>
<path d="M464.409 274.909H447.227V292.091H464.409V274.909Z" fill="black"/>
<path d="M481.591 274.909H464.409V292.091H481.591V274.909Z" fill="black"/>
<path d="M498.773 274.909H481.591V292.091H498.773V274.909Z" fill="black"/>
<path d="M550.318 274.909H533.136V292.091H550.318V274.909Z" fill="black"/>
<path d="M34.8636 292.091H17.6818V309.273H34.8636V292.091Z" fill="black"/>
<path d="M52.0455 292.091H34.8636V309.273H52.0455V292.091Z" fill="black"/>
<path d="M69.2273 292.091H52.0455V309.273H69.2273V292.091Z" fill="black"/>
<path d="M86.4091 292.091H69.2273V309.273H86.4091V292.091Z" fill="black"/>
<path d="M103.591 292.091H86.4091V309.273H103.591V292.091Z" fill="black"/>
<path d="M137.955 292.091H120.773V309.273H137.955V292.091Z" fill="black"/>
<path d="M189.5 292.091H172.318V309.273H189.5V292.091Z" fill="black"/>
<path d="M206.682 292.091H189.5V309.273H206.682V292.091Z" fill="black"/>
<path d="M241.045 292.091H223.864V309.273H241.045V292.091Z" fill="black"/>
<path d="M275.409 292.091H258.227V309.273H275.409V292.091Z" fill="black"/>
<path d="M292.591 292.091H275.409V309.273H292.591V292.091Z" fill="black"/>
<path d="M344.136 292.091H326.955L326.955 309.273H344.136V292.091Z" fill="black"/>
<path d="M361.318 292.091H344.136V309.273H361.318V292.091Z" fill="black"/>
<path d="M430.045 292.091H412.864V309.273H430.045V292.091Z" fill="black"/>
<path d="M515.955 292.091H498.773V309.273H515.955V292.091Z" fill="black"/>
<path d="M533.136 292.091H515.955V309.273H533.136V292.091Z" fill="black"/>
<path d="M550.318 292.091H533.136V309.273H550.318V292.091Z" fill="black"/>
<path d="M17.6818 309.273H0.5V326.455H17.6818V309.273Z" fill="black"/>
<path d="M103.591 309.273H86.4091V326.455H103.591V309.273Z" fill="black"/>
<path d="M120.773 309.273H103.591V326.455H120.773V309.273Z" fill="black"/>
<path d="M137.955 309.273H120.773V326.455H137.955V309.273Z" fill="black"/>
<path d="M172.318 309.273H155.136V326.455H172.318V309.273Z" fill="black"/>
<path d="M326.955 309.273H309.773V326.455H326.955L326.955 309.273Z" fill="black"/>
<path d="M344.136 309.273H326.955L326.955 326.455H344.136V309.273Z" fill="black"/>
<path d="M361.318 309.273H344.136V326.455H361.318V309.273Z" fill="black"/>
<path d="M378.5 309.273H361.318V326.455H378.5V309.273Z" fill="black"/>
<path d="M395.682 309.273H378.5V326.455H395.682V309.273Z" fill="black"/>
<path d="M430.045 309.273H412.864V326.455H430.045V309.273Z" fill="black"/>
<path d="M550.318 309.273H533.136V326.455H550.318V309.273Z" fill="black"/>
<path d="M17.6818 326.455H0.5V343.636H17.6818V326.455Z" fill="black"/>
<path d="M52.0455 326.455H34.8636V343.636H52.0455V326.455Z" fill="black"/>
<path d="M86.4091 326.455L69.2273 326.455V343.636H86.4091V326.455Z" fill="black"/>
<path d="M137.955 326.455H120.773V343.636H137.955V326.455Z" fill="black"/>
<path d="M155.136 326.455H137.955V343.636H155.136V326.455Z" fill="black"/>
<path d="M189.5 326.455L172.318 326.455V343.636H189.5V326.455Z" fill="black"/>
<path d="M275.409 326.455H258.227V343.636H275.409V326.455Z" fill="black"/>
<path d="M292.591 326.455H275.409V343.636H292.591V326.455Z" fill="black"/>
<path d="M378.5 326.455H361.318V343.636H378.5V326.455Z" fill="black"/>
<path d="M430.045 326.455H412.864V343.636H430.045V326.455Z" fill="black"/>
<path d="M447.227 326.455L430.045 326.455V343.636H447.227V326.455Z" fill="black"/>
<path d="M481.591 326.455H464.409V343.636H481.591V326.455Z" fill="black"/>
<path d="M498.773 326.455H481.591V343.636H498.773V326.455Z" fill="black"/>
<path d="M515.955 326.455H498.773V343.636H515.955V326.455Z" fill="black"/>
<path d="M52.0455 343.636H34.8636V360.818H52.0455V343.636Z" fill="black"/>
<path d="M103.591 343.636H86.4091V360.818H103.591V343.636Z" fill="black"/>
<path d="M120.773 343.636H103.591V360.818H120.773V343.636Z" fill="black"/>
<path d="M137.955 343.636H120.773V360.818H137.955V343.636Z" fill="black"/>
<path d="M189.5 343.636H172.318V360.818H189.5V343.636Z" fill="black"/>
<path d="M258.227 343.636H241.045V360.818H258.227V343.636Z" fill="black"/>
<path d="M344.136 343.636H326.955V360.818H344.136V343.636Z" fill="black"/>
<path d="M378.5 343.636H361.318V360.818H378.5V343.636Z" fill="black"/>
<path d="M395.682 343.636H378.5V360.818H395.682V343.636Z" fill="black"/>
<path d="M430.045 343.636H412.864V360.818H430.045V343.636Z" fill="black"/>
<path d="M447.227 343.636H430.045V360.818H447.227V343.636Z" fill="black"/>
<path d="M481.591 343.636H464.409V360.818H481.591V343.636Z" fill="black"/>
<path d="M515.955 343.636H498.773V360.818H515.955V343.636Z" fill="black"/>
<path d="M17.6818 360.818H0.5V378H17.6818V360.818Z" fill="black"/>
<path d="M69.2273 360.818H52.0455V378H69.2273V360.818Z" fill="black"/>
<path d="M103.591 360.818H86.4091V378H103.591V360.818Z" fill="black"/>
<path d="M137.955 360.818H120.773V378H137.955V360.818Z" fill="black"/>
<path d="M155.136 360.818H137.955V378H155.136V360.818Z" fill="black"/>
<path d="M189.5 360.818H172.318V378H189.5V360.818Z" fill="black"/>
<path d="M241.045 360.818H223.864V378H241.045V360.818Z" fill="black"/>
<path d="M258.227 360.818H241.045V378H258.227V360.818Z" fill="black"/>
<path d="M275.409 360.818H258.227V378H275.409V360.818Z" fill="black"/>
<path d="M292.591 360.818H275.409V378H292.591V360.818Z" fill="black"/>
<path d="M309.773 360.818H292.591V378H309.773V360.818Z" fill="black"/>
<path d="M344.136 360.818H326.955V378H344.136V360.818Z" fill="black"/>
<path d="M378.5 360.818H361.318V378H378.5V360.818Z" fill="black"/>
<path d="M412.864 360.818H395.682V378H412.864V360.818Z" fill="black"/>
<path d="M430.045 360.818H412.864V378H430.045V360.818Z" fill="black"/>
<path d="M464.409 360.818H447.227V378H464.409V360.818Z" fill="black"/>
<path d="M550.318 360.818H533.136V378H550.318V360.818Z" fill="black"/>
<path d="M567.5 360.818H550.318V378H567.5V360.818Z" fill="black"/>
<path d="M17.6818 378H0.5V395.182H17.6818V378Z" fill="black"/>
<path d="M120.773 378H103.591V395.182H120.773V378Z" fill="black"/>
<path d="M172.318 378H155.136V395.182H172.318V378Z" fill="black"/>
<path d="M189.5 378H172.318V395.182H189.5V378Z" fill="black"/>
<path d="M241.045 378H223.864V395.182H241.045V378Z" fill="black"/>
<path d="M258.227 378H241.045V395.182H258.227V378Z" fill="black"/>
<path d="M292.591 378H275.409V395.182H292.591V378Z" fill="black"/>
<path d="M309.773 378H292.591V395.182H309.773V378Z" fill="black"/>
<path d="M326.955 378H309.773V395.182H326.955L326.955 378Z" fill="black"/>
<path d="M361.318 378H344.136V395.182H361.318V378Z" fill="black"/>
<path d="M378.5 378H361.318V395.182H378.5V378Z" fill="black"/>
<path d="M395.682 378H378.5V395.182H395.682V378Z" fill="black"/>
<path d="M430.045 378H412.864V395.182H430.045V378Z" fill="black"/>
<path d="M447.227 378H430.045V395.182H447.227V378Z" fill="black"/>
<path d="M498.773 378H481.591V395.182H498.773V378Z" fill="black"/>
<path d="M17.6818 395.182H0.5V412.364H17.6818V395.182Z" fill="black"/>
<path d="M34.8636 395.182H17.6818V412.364H34.8636V395.182Z" fill="black"/>
<path d="M52.0455 395.182H34.8636V412.364H52.0455V395.182Z" fill="black"/>
<path d="M69.2273 395.182H52.0455V412.364H69.2273V395.182Z" fill="black"/>
<path d="M86.4091 395.182H69.2273V412.364H86.4091V395.182Z" fill="black"/>
<path d="M137.955 395.182H120.773V412.364H137.955V395.182Z" fill="black"/>
<path d="M206.682 395.182H189.5V412.364H206.682V395.182Z" fill="black"/>
<path d="M258.227 395.182H241.045V412.364H258.227V395.182Z" fill="black"/>
<path d="M275.409 395.182H258.227V412.364H275.409V395.182Z" fill="black"/>
<path d="M309.773 395.182H292.591V412.364H309.773V395.182Z" fill="black"/>
<path d="M361.318 395.182H344.136V412.364H361.318V395.182Z" fill="black"/>
<path d="M412.864 395.182H395.682V412.364H412.864V395.182Z" fill="black"/>
<path d="M430.045 395.182H412.864V412.364H430.045V395.182Z" fill="black"/>
<path d="M447.227 395.182H430.045V412.364H447.227V395.182Z" fill="black"/>
<path d="M515.955 395.182H498.773V412.364H515.955V395.182Z" fill="black"/>
<path d="M533.136 395.182H515.955V412.364H533.136V395.182Z" fill="black"/>
<path d="M550.318 395.182H533.136V412.364H550.318V395.182Z" fill="black"/>
<path d="M86.4091 412.364H69.2273V429.545H86.4091V412.364Z" fill="black"/>
<path d="M103.591 412.364H86.4091V429.545H103.591V412.364Z" fill="black"/>
<path d="M120.773 412.364H103.591V429.545H120.773V412.364Z" fill="black"/>
<path d="M172.318 412.364H155.136V429.545H172.318V412.364Z" fill="black"/>
<path d="M241.045 412.364H223.864V429.545H241.045V412.364Z" fill="black"/>
<path d="M275.409 412.364H258.227V429.545H275.409V412.364Z" fill="black"/>
<path d="M309.773 412.364H292.591V429.545H309.773V412.364Z" fill="black"/>
<path d="M326.955 412.364H309.773V429.545H326.955V412.364Z" fill="black"/>
<path d="M361.318 412.364H344.136V429.545H361.318V412.364Z" fill="black"/>
<path d="M378.5 412.364H361.318V429.545H378.5V412.364Z" fill="black"/>
<path d="M395.682 412.364H378.5V429.545H395.682V412.364Z" fill="black"/>
<path d="M412.864 412.364H395.682V429.545H412.864V412.364Z" fill="black"/>
<path d="M430.045 412.364H412.864V429.545H430.045V412.364Z" fill="black"/>
<path d="M447.227 412.364H430.045V429.545H447.227V412.364Z" fill="black"/>
<path d="M464.409 412.364H447.227V429.545H464.409V412.364Z" fill="black"/>
<path d="M481.591 412.364H464.409V429.545H481.591V412.364Z" fill="black"/>
<path d="M498.773 412.364H481.591V429.545H498.773V412.364Z" fill="black"/>
<path d="M533.136 412.364H515.955V429.545H533.136V412.364Z" fill="black"/>
<path d="M550.318 412.364H533.136V429.545H550.318V412.364Z" fill="black"/>
<path d="M567.5 412.364H550.318V429.545H567.5V412.364Z" fill="black"/>
<path d="M155.136 429.545H137.955V446.727H155.136V429.545Z" fill="black"/>
<path d="M172.318 429.545H155.136V446.727H172.318V429.545Z" fill="black"/>
<path d="M206.682 429.545H189.5V446.727H206.682V429.545Z" fill="black"/>
<path d="M223.864 429.545H206.682V446.727H223.864V429.545Z" fill="black"/>
<path d="M258.227 429.545H241.045V446.727H258.227V429.545Z" fill="black"/>
<path d="M344.136 429.545H326.955L326.955 446.727H344.136V429.545Z" fill="black"/>
<path d="M361.318 429.545H344.136V446.727H361.318V429.545Z" fill="black"/>
<path d="M430.045 429.545H412.864V446.727H430.045V429.545Z" fill="black"/>
<path d="M498.773 429.545H481.591V446.727H498.773V429.545Z" fill="black"/>
<path d="M567.5 429.545H550.318V446.727H567.5V429.545Z" fill="black"/>
<path d="M17.6818 446.727H0.5V463.909H17.6818V446.727Z" fill="black"/>
<path d="M34.8636 446.727H17.6818V463.909H34.8636V446.727Z" fill="black"/>
<path d="M52.0455 446.727H34.8636V463.909H52.0455V446.727Z" fill="black"/>
<path d="M69.2273 446.727H52.0455V463.909H69.2273V446.727Z" fill="black"/>
<path d="M86.4091 446.727H69.2273V463.909H86.4091V446.727Z" fill="black"/>
<path d="M103.591 446.727H86.4091V463.909H103.591V446.727Z" fill="black"/>
<path d="M120.773 446.727H103.591V463.909H120.773V446.727Z" fill="black"/>
<path d="M172.318 446.727H155.136V463.909H172.318V446.727Z" fill="black"/>
<path d="M189.5 446.727H172.318V463.909H189.5V446.727Z" fill="black"/>
<path d="M206.682 446.727H189.5V463.909H206.682V446.727Z" fill="black"/>
<path d="M223.864 446.727H206.682V463.909H223.864V446.727Z" fill="black"/>
<path d="M241.045 446.727H223.864V463.909H241.045V446.727Z" fill="black"/>
<path d="M258.227 446.727H241.045V463.909H258.227V446.727Z" fill="black"/>
<path d="M275.409 446.727H258.227V463.909H275.409V446.727Z" fill="black"/>
<path d="M292.591 446.727H275.409V463.909H292.591V446.727Z" fill="black"/>
<path d="M378.5 446.727H361.318V463.909H378.5V446.727Z" fill="black"/>
<path d="M395.682 446.727H378.5V463.909H395.682V446.727Z" fill="black"/>
<path d="M430.045 446.727H412.864V463.909H430.045V446.727Z" fill="black"/>
<path d="M464.409 446.727H447.227V463.909H464.409V446.727Z" fill="black"/>
<path d="M498.773 446.727H481.591V463.909H498.773V446.727Z" fill="black"/>
<path d="M515.955 446.727H498.773V463.909H515.955V446.727Z" fill="black"/>
<path d="M567.5 446.727H550.318V463.909H567.5V446.727Z" fill="black"/>
<path d="M17.6818 463.909H0.5V481.091H17.6818V463.909Z" fill="black"/>
<path d="M120.773 463.909H103.591V481.091H120.773V463.909Z" fill="black"/>
<path d="M155.136 463.909H137.955V481.091H155.136V463.909Z" fill="black"/>
<path d="M172.318 463.909H155.136V481.091H172.318V463.909Z" fill="black"/>
<path d="M189.5 463.909H172.318V481.091H189.5V463.909Z" fill="black"/>
<path d="M258.227 463.909H241.045V481.091H258.227V463.909Z" fill="black"/>
<path d="M309.773 463.909H292.591V481.091H309.773V463.909Z" fill="black"/>
<path d="M344.136 463.909H326.955V481.091H344.136V463.909Z" fill="black"/>
<path d="M378.5 463.909H361.318V481.091H378.5V463.909Z" fill="black"/>
<path d="M395.682 463.909H378.5V481.091H395.682V463.909Z" fill="black"/>
<path d="M430.045 463.909H412.864V481.091H430.045V463.909Z" fill="black"/>
<path d="M498.773 463.909H481.591V481.091H498.773V463.909Z" fill="black"/>
<path d="M17.6818 481.091H0.5V498.273H17.6818V481.091Z" fill="black"/>
<path d="M52.0455 481.091H34.8636V498.273H52.0455V481.091Z" fill="black"/>
<path d="M69.2273 481.091H52.0455V498.273H69.2273V481.091Z" fill="black"/>
<path d="M86.4091 481.091H69.2273V498.273H86.4091V481.091Z" fill="black"/>
<path d="M120.773 481.091H103.591V498.273H120.773V481.091Z" fill="black"/>
<path d="M189.5 481.091H172.318V498.273H189.5V481.091Z" fill="black"/>
<path d="M206.682 481.091H189.5V498.273H206.682V481.091Z" fill="black"/>
<path d="M241.045 481.091H223.864V498.273H241.045V481.091Z" fill="black"/>
<path d="M275.409 481.091H258.227V498.273H275.409V481.091Z" fill="black"/>
<path d="M292.591 481.091H275.409V498.273H292.591V481.091Z" fill="black"/>
<path d="M430.045 481.091H412.864V498.273H430.045V481.091Z" fill="black"/>
<path d="M447.227 481.091H430.045V498.273H447.227V481.091Z" fill="black"/>
<path d="M464.409 481.091H447.227V498.273H464.409V481.091Z" fill="black"/>
<path d="M481.591 481.091H464.409V498.273H481.591V481.091Z" fill="black"/>
<path d="M498.773 481.091H481.591V498.273H498.773V481.091Z" fill="black"/>
<path d="M515.955 481.091H498.773V498.273H515.955V481.091Z" fill="black"/>
<path d="M533.136 481.091H515.955V498.273H533.136V481.091Z" fill="black"/>
<path d="M567.5 481.091H550.318V498.273H567.5V481.091Z" fill="black"/>
<path d="M17.6818 498.273H0.5V515.455H17.6818V498.273Z" fill="black"/>
<path d="M52.0455 498.273H34.8636V515.455H52.0455V498.273Z" fill="black"/>
<path d="M69.2273 498.273H52.0455V515.455H69.2273V498.273Z" fill="black"/>
<path d="M86.4091 498.273H69.2273V515.455H86.4091V498.273Z" fill="black"/>
<path d="M120.773 498.273H103.591V515.455H120.773V498.273Z" fill="black"/>
<path d="M206.682 498.273H189.5V515.455H206.682V498.273Z" fill="black"/>
<path d="M223.864 498.273H206.682V515.455H223.864V498.273Z" fill="black"/>
<path d="M258.227 498.273H241.045V515.455H258.227V498.273Z" fill="black"/>
<path d="M292.591 498.273H275.409V515.455H292.591V498.273Z" fill="black"/>
<path d="M309.773 498.273H292.591V515.455H309.773V498.273Z" fill="black"/>
<path d="M378.5 498.273H361.318V515.455H378.5V498.273Z" fill="black"/>
<path d="M412.864 498.273H395.682V515.455H412.864V498.273Z" fill="black"/>
<path d="M430.045 498.273H412.864V515.455H430.045V498.273Z" fill="black"/>
<path d="M447.227 498.273H430.045V515.455H447.227V498.273Z" fill="black"/>
<path d="M464.409 498.273H447.227V515.455H464.409V498.273Z" fill="black"/>
<path d="M498.773 498.273H481.591V515.455H498.773V498.273Z" fill="black"/>
<path d="M567.5 498.273H550.318V515.455H567.5V498.273Z" fill="black"/>
<path d="M17.6818 515.455H0.5V532.636H17.6818V515.455Z" fill="black"/>
<path d="M52.0455 515.455H34.8636V532.636H52.0455V515.455Z" fill="black"/>
<path d="M69.2273 515.455H52.0455V532.636H69.2273V515.455Z" fill="black"/>
<path d="M86.4091 515.455H69.2273V532.636H86.4091V515.455Z" fill="black"/>
<path d="M120.773 515.455H103.591V532.636H120.773V515.455Z" fill="black"/>
<path d="M189.5 515.455H172.318V532.636H189.5V515.455Z" fill="black"/>
<path d="M258.227 515.455H241.045V532.636H258.227V515.455Z" fill="black"/>
<path d="M326.955 515.455H309.773V532.636H326.955V515.455Z" fill="black"/>
<path d="M395.682 515.455H378.5V532.636H395.682V515.455Z" fill="black"/>
<path d="M464.409 515.455H447.227V532.636H464.409V515.455Z" fill="black"/>
<path d="M17.6818 532.636H0.5V549.818H17.6818V532.636Z" fill="black"/>
<path d="M120.773 532.636H103.591V549.818H120.773V532.636Z" fill="black"/>
<path d="M206.682 532.636H189.5V549.818H206.682V532.636Z" fill="black"/>
<path d="M223.864 532.636H206.682V549.818H223.864V532.636Z" fill="black"/>
<path d="M241.045 532.636H223.864V549.818H241.045V532.636Z" fill="black"/>
<path d="M258.227 532.636H241.045V549.818H258.227V532.636Z" fill="black"/>
<path d="M275.409 532.636H258.227V549.818H275.409V532.636Z" fill="black"/>
<path d="M292.591 532.636H275.409V549.818H292.591V532.636Z" fill="black"/>
<path d="M309.773 532.636H292.591V549.818H309.773V532.636Z" fill="black"/>
<path d="M326.955 532.636H309.773V549.818H326.955V532.636Z" fill="black"/>
<path d="M344.136 532.636H326.955V549.818H344.136V532.636Z" fill="black"/>
<path d="M361.318 532.636H344.136V549.818H361.318V532.636Z" fill="black"/>
<path d="M378.5 532.636H361.318V549.818H378.5V532.636Z" fill="black"/>
<path d="M430.045 532.636H412.864V549.818H430.045V532.636Z" fill="black"/>
<path d="M464.409 532.636H447.227V549.818H464.409V532.636Z" fill="black"/>
<path d="M515.955 532.636H498.773V549.818H515.955V532.636Z" fill="black"/>
<path d="M567.5 532.636H550.318V549.818H567.5V532.636Z" fill="black"/>
<path d="M17.6818 549.818H0.5V567H17.6818V549.818Z" fill="black"/>
<path d="M34.8636 549.818H17.6818V567H34.8636V549.818Z" fill="black"/>
<path d="M52.0455 549.818H34.8636V567H52.0455V549.818Z" fill="black"/>
<path d="M69.2273 549.818H52.0455V567H69.2273V549.818Z" fill="black"/>
<path d="M86.4091 549.818H69.2273V567H86.4091V549.818Z" fill="black"/>
<path d="M103.591 549.818H86.4091V567H103.591V549.818Z" fill="black"/>
<path d="M120.773 549.818H103.591V567H120.773V549.818Z" fill="black"/>
<path d="M172.318 549.818H155.136V567H172.318V549.818Z" fill="black"/>
<path d="M189.5 549.818H172.318V567H189.5V549.818Z" fill="black"/>
<path d="M241.045 549.818H223.864V567H241.045V549.818Z" fill="black"/>
<path d="M326.955 549.818H309.773V567H326.955V549.818Z" fill="black"/>
<path d="M344.136 549.818H326.955V567H344.136V549.818Z" fill="black"/>
<path d="M361.318 549.818H344.136V567H361.318V549.818Z" fill="black"/>
<path d="M378.5 549.818H361.318V567H378.5V549.818Z" fill="black"/>
<path d="M395.682 549.818H378.5V567H395.682V549.818Z" fill="black"/>
<path d="M412.864 549.818H395.682V567H412.864V549.818Z" fill="black"/>
<path d="M447.227 549.818H430.045V567H447.227V549.818Z" fill="black"/>
<path d="M533.136 549.818H515.955V567H533.136V549.818Z" fill="black"/>
</svg>
